<svg width="162" height="160" viewBox="0 0 162 160" fill="none" xmlns="http://www.w3.org/2000/svg">
<g filter="url(#filter0_ddd_2_3935)">
<path d="M15.3595 60.0868C16.8307 41.3678 17.5664 32.0083 21.6825 24.9207C25.3068 18.6798 30.7233 13.6723 37.229 10.5481C44.6174 7 54.0057 7 72.7824 7H88.7541C107.434 7 116.774 7 124.139 10.5216C130.625 13.6227 136.033 18.5947 139.669 24.7971C143.796 31.8405 144.581 41.1472 146.151 59.7608L147.736 78.5607C149.563 100.232 150.476 111.068 146.819 119.428C143.606 126.773 138.034 132.835 130.985 136.654C122.962 141 112.088 141 90.3392 141H71.3048C49.6672 141 38.8484 141 30.8467 136.683C23.8158 132.889 18.2465 126.865 15.0157 119.559C11.3388 111.243 12.1865 100.458 13.8819 78.8868L15.3595 60.0868Z" fill="white"/>
</g>
<defs>
<filter id="filter0_ddd_2_3935" x="0.211322" y="0.889299" width="161.344" height="158.443" filterUnits="userSpaceOnUse" color-interpolation-filters="sRGB">
<feFlood flood-opacity="0" result="BackgroundImageFix"/>
<feColorMatrix in="SourceAlpha" type="matrix" values="0 0 0 0 0 0 0 0 0 0 0 0 0 0 0 0 0 0 127 0" result="hardAlpha"/>
<feOffset dy="6.1107"/>
<feGaussianBlur stdDeviation="6.1107"/>
<feColorMatrix type="matrix" values="0 0 0 0 0.964706 0 0 0 0 0.505883 0 0 0 0 0.356863 0 0 0 0.35 0"/>
<feBlend mode="normal" in2="BackgroundImageFix" result="effect1_dropShadow_2_3935"/>
<feColorMatrix in="SourceAlpha" type="matrix" values="0 0 0 0 0 0 0 0 0 0 0 0 0 0 0 0 0 0 127 0" result="hardAlpha"/>
<feOffset dy="4"/>
<feGaussianBlur stdDeviation="2"/>
<feComposite in2="hardAlpha" operator="out"/>
<feColorMatrix type="matrix" values="0 0 0 0 0 0 0 0 0 0 0 0 0 0 0 0 0 0 0.25 0"/>
<feBlend mode="normal" in2="effect1_dropShadow_2_3935" result="effect2_dropShadow_2_3935"/>
<feColorMatrix in="SourceAlpha" type="matrix" values="0 0 0 0 0 0 0 0 0 0 0 0 0 0 0 0 0 0 127 0" result="hardAlpha"/>
<feOffset dy="4"/>
<feGaussianBlur stdDeviation="2"/>
<feComposite in2="hardAlpha" operator="out"/>
<feColorMatrix type="matrix" values="0 0 0 0 0 0 0 0 0 0 0 0 0 0 0 0 0 0 0.25 0"/>
<feBlend mode="normal" in2="effect2_dropShadow_2_3935" result="effect3_dropShadow_2_3935"/>
<feBlend mode="normal" in="SourceGraphic" in2="effect3_dropShadow_2_3935" result="shape"/>
</filter>
</defs>
</svg>
