<svg width="111" height="26" viewBox="0 0 111 26" fill="none" xmlns="http://www.w3.org/2000/svg">
<path d="M38.5544 20.6963C38.2503 20.7774 37.941 20.8368 37.6286 20.8741C37.1954 20.9343 36.7586 20.964 36.3214 20.963C35.9325 20.9665 35.5441 20.9367 35.1602 20.8741C34.8471 20.8274 34.5498 20.7054 34.2934 20.5184C34.0504 20.3306 33.8626 20.0798 33.7501 19.7928C33.6224 19.487 33.5585 19.0869 33.5585 18.5925V12.0139C33.5585 11.2035 33.3578 10.6356 32.9563 10.3101C32.5549 9.98463 32.0603 9.82108 31.4727 9.81944C31.0955 9.81732 30.7198 9.86703 30.3559 9.96723C30.0566 10.0439 29.7697 10.1637 29.5043 10.323V20.6932C29.2002 20.7742 28.8908 20.8336 28.5785 20.871C28.1451 20.9313 27.7081 20.961 27.2707 20.96C26.882 20.9634 26.4938 20.9337 26.1101 20.871C25.797 20.8244 25.4997 20.7024 25.2433 20.5153C25 20.3278 24.8119 20.0769 24.6994 19.7897C24.5717 19.4839 24.508 19.0838 24.5085 18.5895V1.40452C24.7238 1.36363 25.0421 1.30924 25.4634 1.24136C25.8858 1.17242 26.313 1.13776 26.7409 1.13772C27.1295 1.1343 27.5178 1.16406 27.9015 1.22666C28.2144 1.27346 28.5116 1.39524 28.7683 1.58178C29.0108 1.77031 29.1987 2.02112 29.3121 2.30796C29.439 2.61462 29.5027 3.01471 29.5031 3.50824V6.41177C29.883 6.2755 30.2706 6.16182 30.6637 6.07135C31.2269 5.93745 31.8041 5.87259 32.3827 5.87816C34.3227 5.87816 35.8362 6.36718 36.923 7.34524C38.0098 8.3233 38.5534 9.77996 38.5538 11.7152L38.5544 20.6963Z" fill="#202561"/>
<path d="M48.7176 21.2004C47.626 21.2096 46.5398 21.044 45.4997 20.7098C44.5473 20.4044 43.6672 19.905 42.9139 19.2427C42.1791 18.5909 41.6013 17.7713 41.1803 16.7838C40.7594 15.7964 40.5487 14.6406 40.5483 13.3167C40.5483 12.0135 40.759 10.8926 41.1803 9.95376C41.6017 9.01495 42.155 8.24459 42.8403 7.64271C43.5253 7.04075 44.3255 6.58695 45.1914 6.30934C46.0648 6.02456 46.9772 5.87968 47.8952 5.88001C48.9329 5.88001 49.8782 6.03823 50.731 6.35471C51.5403 6.6456 52.288 7.08777 52.9348 7.65804C53.5497 8.20867 54.0407 8.88562 54.3746 9.64341C54.7218 10.4364 54.8971 11.295 54.8886 12.1618C54.8886 12.8331 54.7027 13.3467 54.3308 13.7024C53.959 14.0582 53.4397 14.2853 52.773 14.3839L45.515 15.4805C45.7299 16.1327 46.1707 16.6215 46.8374 16.947C47.5041 17.2724 48.268 17.436 49.1294 17.4376C49.8992 17.4422 50.6659 17.3375 51.4068 17.1267C52.1217 16.9194 52.7045 16.6775 53.155 16.4011C53.4795 16.6111 53.7504 16.8952 53.9458 17.2303C54.1561 17.5677 54.2682 17.9579 54.2694 18.3564C54.2694 19.2449 53.858 19.9067 53.0352 20.3418C52.3737 20.6889 51.6582 20.9193 50.9196 21.0232C50.1909 21.137 49.4549 21.1962 48.7176 21.2004V21.2004ZM47.8952 9.55569C47.4248 9.55569 47.0182 9.6346 46.6756 9.79243C46.3569 9.93304 46.0714 10.1402 45.838 10.4002C45.6242 10.6426 45.4589 10.9244 45.3513 11.2301C45.2444 11.5304 45.1801 11.8445 45.1603 12.163L50.1854 11.3331C50.1262 10.939 49.9106 10.544 49.5388 10.1482C49.1669 9.75237 48.619 9.55487 47.8952 9.55569V9.55569Z" fill="#202561"/>
<path d="M61.9083 20.6962C61.6922 20.7371 61.3738 20.7915 60.9533 20.8594C60.531 20.9286 60.1038 20.9632 59.6759 20.963C59.2873 20.9665 58.899 20.9367 58.5154 20.8741C58.2023 20.8275 57.9049 20.7054 57.6486 20.5183C57.4053 20.3308 57.2172 20.08 57.1047 19.7928C56.977 19.4869 56.9134 19.0868 56.9138 18.5925V1.40754C57.1291 1.36665 57.4474 1.31229 57.8687 1.24442C58.2911 1.17544 58.7183 1.14079 59.1461 1.14077C59.5348 1.13735 59.923 1.16708 60.3067 1.22968C60.6196 1.27649 60.9169 1.39827 61.1735 1.5848C61.416 1.77333 61.6039 2.02414 61.7173 2.31098C61.8446 2.61764 61.9083 3.01776 61.9083 3.51129V20.6962Z" fill="#202561"/>
<path d="M71.1311 5.88065C72.2398 5.87124 73.3439 6.02604 74.408 6.34005C75.4165 6.64672 76.2833 7.1159 77.0084 7.74763C77.7485 8.40191 78.3309 9.21766 78.7116 10.1329C79.1232 11.0909 79.329 12.2317 79.329 13.5553C79.329 14.8191 79.1526 15.9252 78.7998 16.8734C78.447 17.8216 77.9473 18.6167 77.3009 19.2586C76.6404 19.9099 75.8417 20.4013 74.9651 20.6957C74.0539 21.0113 73.0401 21.1694 71.9237 21.1698C71.124 21.1766 70.329 21.0464 69.5727 20.7846V25.7035C69.2632 25.7864 68.9492 25.8507 68.6323 25.8961C68.1948 25.9655 67.7527 26.0002 67.3098 25.9998C66.9212 26.0032 66.5329 25.9735 66.1493 25.9108C65.8362 25.8639 65.539 25.7419 65.2824 25.5551C65.041 25.3701 64.857 25.1195 64.752 24.8326C64.6344 24.5259 64.5756 24.1258 64.5756 23.6323V9.40731C64.5756 8.87576 64.6883 8.44131 64.9138 8.10398C65.1638 7.74265 65.4776 7.43079 65.8396 7.18398C66.4479 6.789 67.202 6.47293 68.1018 6.23578C69.0017 5.99862 70.0115 5.88024 71.1311 5.88065ZM71.1919 17.1997C73.2098 17.1997 74.2188 15.9849 74.2188 13.5553C74.2188 12.291 73.969 11.3526 73.4694 10.7401C72.9697 10.1276 72.2497 9.8209 71.3093 9.82008C70.9715 9.81529 70.6349 9.86012 70.3099 9.95317C70.0456 10.0302 69.7897 10.1344 69.5465 10.2641V16.7832C69.7913 16.9056 70.0469 17.0047 70.3099 17.0795C70.5963 17.1609 70.8925 17.2016 71.1901 17.2003L71.1919 17.1997Z" fill="#202561"/>
<path d="M88.8468 21.2004C87.7552 21.2097 86.6691 21.044 85.629 20.7097C84.6764 20.4046 83.7963 19.9053 83.0432 19.2426C82.3084 18.5909 81.7306 17.7713 81.3096 16.7838C80.8887 15.7963 80.678 14.6406 80.6776 13.3166C80.6776 12.0135 80.8883 10.8926 81.3096 9.95375C81.731 9.01494 82.2843 8.24459 82.9696 7.6427C83.6546 7.04075 84.4548 6.58694 85.3206 6.30934C86.1939 6.02461 87.1061 5.87974 88.0238 5.88001C89.062 5.88001 90.0073 6.03823 90.8597 6.35471C91.6692 6.64547 92.4171 7.08764 93.0641 7.65804C93.679 8.20867 94.1699 8.88562 94.5039 9.6434C94.8511 10.4364 95.0263 11.295 95.0179 12.1617C95.0179 12.8331 94.8317 13.3467 94.4595 13.7024C94.0872 14.0581 93.5681 14.2853 92.9022 14.3838L85.6436 15.4805C85.859 16.1326 86.2998 16.6215 86.966 16.9469C87.6323 17.2724 88.3963 17.436 89.258 17.4376C90.0279 17.4422 90.7945 17.3375 91.5355 17.1267C92.2508 16.9193 92.8337 16.6775 93.2843 16.4011C93.6086 16.6113 93.8795 16.8953 94.075 17.2303C94.2853 17.5677 94.3974 17.9579 94.3986 18.3564C94.3986 19.2449 93.987 19.9067 93.1638 20.3417C92.5024 20.6889 91.7868 20.9194 91.0482 21.0231C90.3198 21.137 89.584 21.1962 88.8468 21.2004V21.2004ZM88.0238 9.55568C87.5542 9.55568 87.1477 9.63459 86.8042 9.79242C86.4858 9.9332 86.2006 10.1404 85.9672 10.4002C85.7533 10.6425 85.5881 10.9243 85.4806 11.2301C85.3734 11.5304 85.3091 11.8445 85.2896 12.163L90.3146 11.3331C90.2558 10.9389 90.0403 10.544 89.668 10.1482C89.2957 9.75237 88.7477 9.55486 88.0238 9.55568Z" fill="#202561"/>
<path d="M106.004 11.5999C106.004 10.9866 105.833 10.5368 105.49 10.2506C105.148 9.96438 104.682 9.82127 104.094 9.82127C103.703 9.8211 103.313 9.87077 102.934 9.96909C102.581 10.0548 102.247 10.2056 101.949 10.4138V20.695C101.645 20.7761 101.335 20.8356 101.023 20.8729C100.59 20.9331 100.153 20.9628 99.7157 20.9618C99.327 20.9653 98.9388 20.9355 98.5551 20.8729C98.242 20.8263 97.9447 20.7043 97.6883 20.5172C97.445 20.3296 97.257 20.0788 97.1445 19.7916C97.0167 19.4857 96.9531 19.0856 96.9535 18.5913V9.70229C96.9535 9.17073 97.066 8.73629 97.2911 8.39896C97.5413 8.03776 97.855 7.72592 98.2169 7.47896C98.8832 7.00465 99.7208 6.61948 100.73 6.32345C101.739 6.02741 102.86 5.87919 104.094 5.87878C106.308 5.87878 108.012 6.36781 109.207 7.34587C110.403 8.32393 111 9.68184 111 11.4196V20.6938C110.696 20.7749 110.387 20.8343 110.074 20.8717C109.641 20.9319 109.204 20.9616 108.766 20.9606C108.378 20.9641 107.989 20.9343 107.606 20.8717C107.293 20.8251 106.995 20.703 106.739 20.5159C106.496 20.3284 106.308 20.0776 106.195 19.7904C106.067 19.4845 106.004 19.0844 106.004 18.5901V11.5999Z" fill="#202561"/>
<path d="M0.00853229 19.3334C-0.00241685 18.0454 -0.00241685 16.1104 0.00853229 14.9052C0.012604 14.3551 0.0448767 13.8057 0.10524 13.259C0.191481 12.5138 0.373686 11.7831 0.647233 11.0853C1.0993 12.236 1.77781 13.2824 2.64186 14.1614C3.50592 15.0404 4.53762 15.7339 5.67471 16.1999C5.67471 16.4452 5.67471 19.3334 5.67471 19.3334C5.67471 19.894 5.60252 20.3477 5.45816 20.6944C5.32994 21.02 5.11681 21.3046 4.84135 21.5181C4.55038 21.7298 4.2133 21.868 3.85838 21.9211C3.52221 21.9771 3.18256 22.0093 2.84193 22.0174C2.5011 22.0093 2.16124 21.9771 1.82487 21.9211C1.46998 21.8679 1.13289 21.7297 0.841866 21.5181C0.566407 21.3047 0.353466 21.0201 0.22568 20.6944C0.0809076 20.3481 0.00853229 19.8944 0.00853229 19.3334" fill="#579FFF"/>
<path d="M12.6876 19.3334C12.6876 19.894 12.7598 20.3476 12.9042 20.6944C13.032 21.0202 13.2451 21.3049 13.521 21.5181C13.8119 21.7299 14.149 21.8681 14.504 21.921C14.8401 21.9771 15.1798 22.0093 15.5204 22.0173C15.861 22.0093 16.2007 21.9771 16.5368 21.921C16.8918 21.8681 17.2289 21.7299 17.5198 21.5181C17.7955 21.3048 18.0086 21.0201 18.1367 20.6944C18.2814 20.3481 18.3536 19.8944 18.3532 19.3334C18.3648 18.0454 18.3642 16.1073 18.3532 14.9052C18.3491 14.3551 18.3168 13.8056 18.2565 13.259C18.1702 12.5137 17.9881 11.783 17.7145 11.0853C17.2624 9.93468 16.5839 8.8883 15.7198 8.00928C14.8558 7.13025 13.8241 6.43681 12.687 5.97076C12.2801 5.80604 11.8611 5.67317 11.434 5.57332C10.7236 5.40503 9.99692 5.31657 9.26724 5.30957H9.09387C8.3652 5.31664 7.63956 5.40511 6.93021 5.57332C6.50303 5.67317 6.08409 5.80604 5.67714 5.97076C5.67714 6.64542 5.68687 7.32681 5.72154 7.98921C5.80488 9.57774 6.9302 10.8142 8.46794 11.0853C8.63063 11.0567 8.79502 11.0391 8.96004 11.0326C9.03182 11.0295 9.10603 11.0252 9.18146 11.0185C9.25689 11.0252 9.33109 11.0295 9.40348 11.0326C9.56829 11.0391 9.7325 11.0567 9.89498 11.0853C11.4327 11.3564 12.558 12.5929 12.6414 14.1814C12.6761 14.8444 12.6846 15.5252 12.6858 16.1999C12.6858 16.4452 12.6858 19.3334 12.6858 19.3334" fill="#579FFF"/>
<path d="M12.6828 2.64219C12.6828 2.08222 12.7551 1.75592 12.8993 1.40939C13.0271 1.08371 13.24 0.79904 13.5155 0.585675C13.8059 0.373694 14.1426 0.23527 14.4973 0.182098C14.8331 0.126654 15.1723 0.0944913 15.5125 0.0858154C15.8527 0.0945201 16.1919 0.126682 16.5277 0.182098C16.8823 0.235387 17.219 0.3738 17.5095 0.585675C17.785 0.79904 17.9979 1.08371 18.1257 1.40939C18.2698 1.75592 18.3501 2.1644 18.3501 2.77037C18.3501 3.37634 18.3611 6.06335 18.3501 7.26548C18.3461 7.81552 18.3138 8.36497 18.2534 8.91165C18.1671 9.65685 17.9849 10.3875 17.7114 11.0853C17.2594 9.93466 16.5809 8.88829 15.7168 8.00926C14.8528 7.13024 13.8211 6.43679 12.684 5.97074C12.684 5.72296 12.684 5.47617 12.684 5.23043C12.6828 4.64715 12.6828 2.64219 12.6828 2.64219Z" fill="#7EDAA2"/>
<path d="M0.000598105 2.77037C0.000598105 2.21469 0.0723794 1.75592 0.217151 1.40939C0.344945 1.08355 0.558148 0.798829 0.833962 0.585675C1.12482 0.373682 1.46196 0.235268 1.81696 0.182098C2.1532 0.126657 2.49281 0.0944949 2.8334 0.0858154C3.174 0.0945236 3.5136 0.126685 3.84985 0.182098C4.20485 0.235268 4.54199 0.373682 4.83285 0.585675C5.10849 0.799004 5.32162 1.08367 5.44963 1.40939C5.5944 1.75572 5.66659 2.20937 5.66618 2.77037C5.67774 3.37266 5.67714 4.65023 5.67592 5.2378C5.67592 5.48313 5.67592 5.72541 5.67592 5.97074C5.67592 6.64541 5.68565 7.3268 5.72033 7.9892C5.80366 9.57773 6.92899 10.8142 8.46673 11.0853C8.62942 11.1139 8.79381 11.1315 8.95883 11.1381C9.0306 11.1411 9.10482 11.1454 9.18025 11.1522C9.25629 11.1454 9.3299 11.1411 9.40167 11.1381C9.56669 11.1315 9.73108 11.1139 9.89377 11.0853C11.4315 11.3564 12.5568 12.5929 12.6402 14.1814C12.6748 14.8444 12.6834 15.5252 12.6846 16.1999C12.2774 16.3647 11.8583 16.4975 11.4309 16.5973C10.7218 16.7655 9.99631 16.8539 9.26784 16.861H9.09388C8.3642 16.854 7.63754 16.7655 6.92716 16.5973C6.49997 16.4975 6.08104 16.3646 5.67408 16.1999C4.53699 15.7338 3.50532 15.0404 2.64127 14.1614C1.77721 13.2823 1.09867 12.2359 0.646605 11.0853C0.373058 10.3876 0.190883 9.65686 0.104642 8.91165C0.0442788 8.36497 0.0119763 7.81552 0.00790466 7.26548C-0.0024362 6.06028 0.000598105 3.32543 0.000598105 2.77037Z" fill="#7EDAA2"/>
</svg>
