<svg width="105" height="135" viewBox="0 0 105 135" fill="none" xmlns="http://www.w3.org/2000/svg">
<path d="M-28.2778 53.7402C-26.8183 35.0087 -26.0885 25.6429 -21.9739 18.5501C-18.3508 12.3046 -12.9334 7.29289 -6.42532 4.16589C0.96574 0.614624 10.3599 0.614624 29.1482 0.614624H44.0172C62.7092 0.614624 72.0552 0.614624 79.4234 4.1396C85.9118 7.24368 91.3216 12.2202 94.9553 18.4275C99.0818 25.4765 99.8602 34.79 101.417 53.417L102.991 72.2493C104.801 93.9079 105.707 104.737 102.047 113.091C98.8319 120.431 93.2596 126.489 86.2129 130.304C78.1926 134.647 67.3255 134.647 45.5913 134.647H27.6808C6.05639 134.647 -4.75583 134.647 -12.755 130.333C-19.7837 126.543 -25.3526 120.523 -28.5855 113.221C-32.2648 104.911 -31.4249 94.1316 -29.7451 72.5725L-28.2778 53.7402Z" fill="#E0E0E0"/>
</svg>
