<svg width="104" height="135" viewBox="0 0 104 135" fill="none" xmlns="http://www.w3.org/2000/svg">
<path d="M3.09746 53.7402C4.55695 35.0087 5.2867 25.6429 9.40138 18.5501C13.0245 12.3046 18.4419 7.29289 24.9499 4.16589C32.341 0.614624 41.7351 0.614624 60.5234 0.614624H75.3925C94.0844 0.614624 103.43 0.614624 110.799 4.1396C117.287 7.24368 122.697 12.2202 126.331 18.4275C130.457 25.4765 131.235 34.79 132.792 53.417L134.366 72.2493C136.177 93.9079 137.082 104.737 133.422 113.091C130.207 120.431 124.635 126.489 117.588 130.304C109.568 134.647 98.7008 134.647 76.9666 134.647H59.0561C37.4316 134.647 26.6194 134.647 18.6202 130.333C11.5915 126.543 6.02261 120.523 2.78972 113.221C-0.889583 104.911 -0.0496807 94.1316 1.63012 72.5725L3.09746 53.7402Z" fill="#E0E0E0"/>
</svg>
